{"title":"A Sound of Thunder (2005) HDrip x264 [450MB] Dual Audio [Eng-Hin","uid":9493582,"size":472846868,"categoryP":"video","categoryS":"hd___movies","magnet":"?xt=urn:btih:73c97480846f9d52aacc554cfe742a641d1e219b&amp;dn=A+Sound+of+Thunder+%282005%29+HDrip+x264+%5B450MB%5D+Dual+Audio+%5BEng-Hin&amp;tr=udp%3A%2F%2Ftracker.openbittorrent.com%3A80&amp;tr=udp%3A%2F%2Fopen.demonii.com%3A1337&amp;tr=udp%3A%2F%2Ftracker.coppersurfer.tk%3A6969&amp;tr=udp%3A%2F%2Fexodus.desync.com%3A6969","seeders":2,"leechers":0,"uploader":"Xdesiars","files":2,"time":1390050640,"description":"Format                                   : Matroska\nFormat version                           : Version 4 / Version 2\nFile size                                : 446 MiB\nDuration                                 : 1h 45mn\nOverall bit rate                         : 591 Kbps\nMovie name                               : A Sound of Thunder (2005) by XdesiArsenal [Team ExDRS]\nEncoded date                             : UTC 2010-10-02 04:00:15\nWriting application                      : mkvmerge v6.7.0 ('Back to the Ground') 32bit built on Jan  8 2014 15:03:17\nWriting library                          : Lavf54.63.104\n\nVideo\nID                                       : 1\nFormat                                   : AVC\nFormat/Info                              : Advanced Video Codec\nFormat profile                           : &lt;a class=&quot;__cf_email__&quot; href=&quot;/cdn-cgi/l/email-protection&quot; data-cfemail=&quot;6e260709062e225d405e&quot;&gt;[email&amp;#160;protected]&lt;/a&gt;&lt;script cf-hash='f9e31' type=&quot;text/javascript&quot;&gt;\n/* &lt;![CDATA[ */!function(){try{var t=&quot;currentScript&quot;in document?document.currentScript:function(){for(var t=document.getElementsByTagName(&quot;script&quot;),e=t.length;e--;)if(t[e].getAttribute(&quot;cf-hash&quot;))return t[e]}();if(t&amp;&amp;t.previousSibling){var e,r,n,i,c=t.previousSibling,a=c.getAttribute(&quot;data-cfemail&quot;);if(a){for(e=&quot;&quot;,r=parseInt(a.substr(0,2),16),n=2;a.length-n;n+=2)i=parseInt(a.substr(n,2),16)^r,e+=String.fromCharCode(i);e=document.createTextNode(e),c.parentNode.replaceChild(e,c)}}}catch(u){}}();/* ]]&gt; */&lt;/script&gt;\nFormat settings, CABAC                   : Yes\nFormat settings, ReFrames                : 1 frame\nCodec ID                                 : V_MPEG4/ISO/AVC\nDuration                                 : 1h 45mn\nBit rate                                 : 306 Kbps\nWidth                                    : 788 pixels\nHeight                                   : 288 pixels\nDisplay aspect ratio                     : 2.736\nFrame rate mode                          : Constant\nFrame rate                               : 23.976 fps\nColor space                              : YUV\nChroma subsampling                       : 4:2:0\nBit depth                                : 8 bits\nScan type                                : Progressive\nBits/(Pixel*Frame)                       : 0.056\nStream size                              : 220 MiB (49%)\nTitle                                    : A Sound of Thunder (2005) by XdesiArsenal [Team ExDRS]\nWriting library                          : x264 core 129\nDefault                                  : Yes\nForced                                   : No\n\nAudio #1\nID                                       : 2\nFormat                                   : MPEG Audio\nFormat version                           : Version 1\nFormat profile                           : Layer 2\nCodec ID                                 : A_MPEG/L2\nCodec ID/Hint                            : MP2\nDuration                                 : 1h 45mn\nBit rate mode                            : Constant\nBit rate                                 : 128 Kbps\nChannel(s)                               : 2 channels\nSampling rate                            : 48.0 KHz\nCompression mode                         : Lossy\nStream size                              : 96.5 MiB (22%)\nTitle                                    : XdesiArsenal [Team ExDRS]\nLanguage                                 : Hindi\nDefault                                  : No\nForced                                   : No\n\nAudio #2\nID                                       : 3\nFormat                                   : AC-3\nFormat/Info                              : Audio Coding 3\nMode extension                           : CM (complete main)\nFormat settings, Endianness              : Big\nCodec ID                                 : A_AC3\nDuration                                 : 1h 45mn\nBit rate mode                            : Constant\nBit rate                                 : 160 Kbps\nChannel(s)                               : 6 channels\nChannel positions                        : Front: L C R, Side: L R, LFE\nSampling rate                            : 16.0 KHz\nBit depth                                : 16 bits\nCompression mode                         : Lossy\nStream size                              : 121 MiB (27%)\nTitle                                    : XdesiArsenal [Team ExDRS]\nLanguage                                 : English\nDefault                                  : Yes\nForced                                   : No\n","torrent":{"xt":"urn:btih:73c97480846f9d52aacc554cfe742a641d1e219b","amp;dn":"A+Sound+of+Thunder+%282005%29+HDrip+x264+%5B450MB%5D+Dual+Audio+%5BEng-Hin","amp;tr":["udp%3A%2F%2Ftracker.openbittorrent.com%3A80","udp%3A%2F%2Fopen.demonii.com%3A1337","udp%3A%2F%2Ftracker.coppersurfer.tk%3A6969","udp%3A%2F%2Fexodus.desync.com%3A6969"],"infoHash":"73c97480846f9d52aacc554cfe742a641d1e219b","infoHashBuffer":{"type":"Buffer","data":[115,201,116,128,132,111,157,82,170,204,85,76,254,116,42,100,29,30,33,155]},"announce":[],"urlList":[]}}